<?xml version="1.0" encoding="utf-8"?>
<!-- Generator: Adobe Illustrator 19.0.0, SVG Export Plug-In . SVG Version: 6.00 Build 0)  -->
<svg version="1.1" id="Layer_1" xmlns="http://www.w3.org/2000/svg" xmlns:xlink="http://www.w3.org/1999/xlink" x="0px" y="0px"
	 viewBox="0 0 57.5 57.3" style="enable-background:new 0 0 57.5 57.3;" xml:space="preserve">
<g>
	<path style="fill:#FDD7EB;" d="M39.6,11.5c0-0.4-0.1-0.9-0.1-1.3C38.3,1.2,26.6,0.1,26.1,0l-0.5,0l-0.4,0.2
		c-0.3,0.1-7.4,2.8-9.6,8.6c-0.6,1.5-0.8,3.2-0.5,4.8c0.1,0.4,0.1,0.8,0.2,1.3c-0.4-0.1-0.8-0.2-1.2-0.3c-9-1.6-13.7,9.1-13.8,9.5
		L0,24.5L0,25c0,0.5,0.6,12.2,9.6,13.8c0.4,0.1,0.8,0.1,1.3,0.2c-0.2,0.4-0.4,0.7-0.6,1.1c-0.2,0.4-0.4,0.8-0.6,1.3
		c-2.9,7.6,5,14.6,5.4,14.9l0.4,0.3l0.5,0.1c0.5,0.1,11.8,3.2,16.1-4.9c0.2-0.4,0.4-0.7,0.6-1.1c0.3,0.3,0.6,0.6,0.9,0.9
		c6.3,6.6,16.4,0.7,16.8,0.4l0.4-0.2l0.3-0.4c0-0.1,1.1-1.7,2-4c1.9-5.1,1.3-9.7-1.7-12.8c-0.3-0.3-0.6-0.6-0.9-0.9
		c0.4-0.2,0.8-0.3,1.2-0.5c2.4-1.2,4.1-3.1,5.1-5.7c1.7-4.6,0.5-9.9,0.5-10.1l-0.1-0.5l-0.3-0.4C56.3,16.1,49,7,40.8,10.9
		C40.4,11.1,40,11.3,39.6,11.5z"/>
	<g>
		<path style="fill:#FDD7EB;" d="M36.9,16.4c0.1-1.6,0.1-3.2-0.1-4.6c-0.9-6.9-10.6-7.8-10.6-7.8s-9.1,3.4-8.1,10.3
			c0.2,1.4,0.6,3,1.1,4.5c-1.5-0.6-3-1.1-4.4-1.3c-6.9-1.3-10.7,7.7-10.7,7.7s0.4,9.7,7.3,10.9c1.4,0.3,3,0.4,4.6,0.3
			c-1,1.2-1.9,2.5-2.6,3.8c-3.3,6.2,4,12.5,4,12.5s9.3,2.6,12.6-3.5c0.7-1.3,1.3-2.7,1.7-4.3c0.8,1.4,1.8,2.6,2.8,3.7
			c4.9,5.1,13.1,0.1,13.1,0.1s5.4-8,0.5-13.1c-1-1.1-2.2-2-3.5-2.9c1.5-0.4,3-0.9,4.3-1.5c6.3-3,4.1-12.5,4.1-12.5s-6-7.6-12.3-4.6
			C39.5,14.6,38.1,15.4,36.9,16.4z M29.2,29.3c0.1,0,0.3,0,0.4,0c0.1,0,0.3-0.1,0.4-0.1c0,0.1,0.1,0.3,0.1,0.4
			c0.1,0.1,0.2,0.2,0.2,0.4c-0.1,0.1-0.2,0.2-0.4,0.3c-0.1,0.1-0.2,0.2-0.3,0.3c-0.1-0.1-0.2-0.2-0.4-0.2c-0.1-0.1-0.2-0.1-0.4-0.2
			c0-0.1,0.1-0.3,0.1-0.4C29.2,29.6,29.2,29.4,29.2,29.3z"/>
		<path style="fill:#F36AB3;" d="M28,20.8c0,0-1.3,1.1-0.9,4.1c0.2,1.3,0.7,2.8,1.2,4.1c-0.1,0-0.1-0.1-0.1-0.1s0,0.1,0.1,0.1
			c-1.2-0.5-2.7-1.1-4-1.3c-3-0.5-4.1,0.7-4.1,0.7s0.6,1.6,3.6,2.1c1.3,0.2,2.9,0.2,4.3,0.2c-0.1,0.1-0.1,0.1-0.1,0.1s0.1,0,0.1,0
			c-0.9,1-1.9,2.2-2.5,3.4c-1.4,2.6-0.6,4.1-0.6,4.1s1.7-0.1,3.1-2.8c0.6-1.2,1.1-2.7,1.5-4c0,0.1,0.1,0.1,0.1,0.1s0-0.1,0-0.1
			c0.7,1.2,1.5,2.5,2.5,3.5c2.1,2.2,3.7,1.8,3.7,1.8s0.4-1.6-1.7-3.8c-0.9-1-2.2-1.9-3.3-2.6c0.1,0,0.1,0,0.1,0s0,0-0.1-0.1
			c1.3-0.3,2.8-0.7,4.1-1.3c2.7-1.3,2.9-3,2.9-3s-1.4-0.9-4.1,0.4c-1.2,0.6-2.5,1.5-3.5,2.4c0-0.1,0-0.1,0-0.1s0,0-0.1,0.1
			c0.1-1.3,0.2-2.9,0-4.3C29.6,21.5,28,20.8,28,20.8z"/>
	</g>
</g>
</svg>
